<svg xmlns="http://www.w3.org/2000/svg" width="2970" height="2620" fill="none" viewBox="0 0 594 524"><path fill="#02619D" d="M186.82 19.57c-13.75-18.24-9.19-22.53 18.8-17.75 34.12 5.82 72.8 26.72 114.35 61.8C337.41 78.35 335.9 77.6 348.4 77.6c37.32 0-12.49.58 24.61 0 177.74-2.77 293.53 268.52 168.63 362.62-48.36 36.44-112.6 31.92-133.04-9.4-17.02-34.27 14.02-76.03 44.98-60.56 11.7 5.88 13.18 21.31 2.24 23.67-17.85 3.88-17.06 24.59 1.22 30.02 35.1 10.45 72.74-34.96 62.52-75.43-1.32-5.17-1.32-5.17-7.02-5.85a109.19 109.19 0 0 1-39.66-13.8c-4.79-3.04-4.79-3.04-9.73 1.56-6.99 6.54-9.72 6.42-15.04-.76-12.54-17.03-26.97-21.66-47.33-15.35-20.37 6.3-38.72 7.11-59.06 1.48-26.71-7.4-96.07 69.6-162.3 54.33-10.86-2.5-10.48-4.7 3.35-18.88 13.75-14.14 31.83-36.83 31.83-39.94 0-1.3-25.79.53-36 2.5-39.29 7.6-78.72 36.49-88.75 64.99-4.75 13.49-1.29 17.55 21.73 25.61 37 12.92 62.68 34.16 78.48 64.83 10.03 19.5 5.97 24.2-11.66 13.53-22.41-13.64-33.92-16.95-66.02-19a213.06 213.06 0 0 1-24.92-3.12c-9.65-2.09-9.65-2.09-13.87.38-12.8 7.64-38.4 32.42-52.8 51.08-7.22 9.38-10 11.85-13.49 11.93-.41 0-1.63-.88-2.7-1.94h-.03c-9.42-9.43-3.76-54.2 12-95.08 6.5-16.87 7.18-20.67 7.07-41.12-.57-124.41 55.39-220.78 159.47-274.44 22.34-11.52 23.1-12.2 24.66-22.73 2.96-20.06-5.82-49.1-20.94-69.16Zm46.65 252.1c5.25-16.57 6.27-15.7-18.3-14.82-67.62 2.5-126.32 42.94-138.2 95.27-3.2 14.02-3.43 25.69-.31 15.28v.04c11.93-39.83 75.22-73.54 133.98-71.45 13.95.53 15.54-1.14 22.83-24.32ZM503.8 296.8c-17.7-14.18-34.19-16.5-40.69-5.78-13.18 21.63 44.26 46.52 81.98 35.53 7.03-2.05 11.13-4.03 14.21-6.84 4.1-3.72 2.96-4.4-8.55-5.05-19.98-1.14-31.6-5.59-46.95-17.86ZM384.3 99c-55.78-8.6-101.6 20.79-110.72 76.73-5.32 32.53 1.48 56.66 38.3 90.07 36.2 32.79 61.12 30.2 70.42 21.54C402.5 268.55 436 190.76 436 149c0-29.46-9.5-43.5-51.7-50Zm102.2 102.03c-10.94.35-14.7 14.94-5.43 21.17 3.95 2.66 5.9 2.81 10.6.88a10.88 10.88 0 0 0 6.42-6.9 8 8 0 1 1-4.32-12.98 11.6 11.6 0 0 0-7.26-2.16Z"/></svg>
