<svg xmlns="http://www.w3.org/2000/svg" width="200" viewBox="0 0 170.58 137.89"><path d="M21.4 148.27c-2.48-2.48-.99-14.26 3.16-25.02 1.71-4.44 1.89-5.44 1.86-10.82C26.27 79.69 41 54.33 68.4 40.21c5.88-3.03 6.08-3.21 6.49-5.98.78-5.28-1.53-12.92-5.51-18.2-3.62-4.8-2.42-5.93 4.95-4.67 8.98 1.53 19.16 7.03 30.1 16.26 4.59 3.88 4.19 3.68 7.48 3.68 5.34 0 13.06.96 19.81 2.45 3.72.82 4 .85 9.13.77 41.77-.61 67.97 70.6 35.09 95.36-12.73 9.59-29.64 8.4-35.02-2.47-4.48-9.02 3.69-20.01 11.84-15.94 3.08 1.55 3.47 5.61.59 6.23-4.7 1.02-4.49 6.47.32 7.9 9.24 2.75 19.15-9.2 16.46-19.85-.35-1.36-.35-1.36-1.85-1.54a28.75 28.75 0 0 1-10.44-3.63c-1.26-.8-1.26-.8-2.56.41-1.84 1.72-2.56 1.69-3.96-.2-3.3-4.48-7.1-5.7-12.46-4.04-8.8 2.74-18.1 2.61-28.97-.4-4.38-1.2-4.41-1.24-2.8-3.04 2.8-3.16 3.3-4.93.63-2.29-11.84 11.73-30.18 19.59-40.29 17.26-2.86-.66-2.76-1.24.88-4.97 3.62-3.72 8.38-9.69 8.38-10.51 0-.34-6.79.14-9.48.66-10.34 2-20.72 9.6-23.36 17.1-1.25 3.55-.34 4.62 5.72 6.74 9.74 3.4 16.5 8.99 20.66 17.06 2.64 5.13 1.57 6.37-3.07 3.56-5.9-3.59-8.93-4.46-17.38-5a56.1 56.1 0 0 1-6.56-.82c-2.54-.55-2.54-.55-3.65.1-3.37 2.01-10.11 8.53-13.9 13.44-1.9 2.47-2.63 3.12-3.55 3.14-.11 0-.43-.23-.71-.51zm18.98-40.7c3.14-10.48 19.8-19.35 35.27-18.8 3.67.14 4.09-.3 6.01-6.4 1.38-4.36 1.65-4.13-4.82-3.9-17.8.66-33.25 11.3-36.38 25.07-.84 3.69-.9 6.76-.08 4.02zm136.47-7.6c1.85-.54 2.93-1.06 3.74-1.8 1.08-.98.78-1.16-2.25-1.33-5.26-.3-8.32-1.47-12.36-4.7-4.66-3.73-9-4.34-10.71-1.52-3.47 5.69 11.65 12.24 21.58 9.35zM134 89.66c4.43-2.95 9.76-16.85 12.9-33.71 1.43-7.62-2.87-12.23-13.62-14.63-14.5-3.24-25.5 4.24-27.9 18.96-1.4 8.56.39 12.28 10.08 21.07 9.53 8.63 14.62 10.9 18.54 8.3zm28.79-16.92c3.08-1.3 2-5.89-1.36-5.8-2.88.09-3.87 3.93-1.43 5.57 1.04.7 1.55.74 2.79.23z" style="fill:#02619d;" transform="translate(-20.2 -10.88)"/></svg>