<svg xmlns="http://www.w3.org/2000/svg" width="200" height="209" fill="none" viewBox="0 0 801 836"><g clip-path="url(#a)"><path fill="#101F24" d="M452.292 16.32c.217-.059.435-.113.651-.175 4.461-1.273 8.449-3.828 12.494-6.046 11.694-6.413 26.64-14.41 39.818-7.096a15.866 15.866 0 0 1 7.546 9.654c1.262 4.72.864 9.681-1.666 13.902-1.084 1.808-2.481 3.381-3.936 4.895a128.65 128.65 0 0 1 78.375 59.897c7.124 12.287 11.516 25.212 15.34 38.792 25.296-3.829 54.582-.513 75.665 15.07 24.14 17.84 36.688 48.628 40.907 77.54 5.97 40.926-4.716 85.407-25.142 121.01-2.989 5.211-6.013 10.598-9.608 15.416l-.606.801c9.119 1.064 18.748.003 27.951.28l.023 34.743 14.52.008-.02-15.082 8.038-.021-.072-46.417 30.345.005-.118 42.484 8.201.021-.01 42.751 29.489-.171-.023 130.55.029 36.19c.006 6.362.579 13.498-.415 19.775-.641 52.783-.131 105.579-.116 158.365-.002 8.407.562 17.563-1.298 25.804-2.375 10.524-8.404 20.761-15.896 28.447-11.856 12.164-27.353 18.128-44.178 18.312-51.298.561-102.66-.016-153.967-.015l-311.123.003-148.632.005-44.623.017c-9.073.01-18.496.514-27.515-.558-13.158-1.563-25.646-8.008-35.006-17.321-8.567-8.523-14.763-19.891-16.936-31.8-1.817-9.954-.846-21.172-.839-31.273l.044-53.832-.03-199.162-.059-235.157 34.41.033c-.084 8.67-.095 17.34-.034 26.01l31.68.025.034-76.777 46.47-.049-.063 47.276 29.246.046c-.915-37.979-.124-76.168-.126-114.169l74.579.026.031 74.599 32.891.024-.021 27.611 10.79.057c2.659-9.67 5.413-19.1 9.313-28.364 2.615-6.211 6-12.218 8.414-18.483-11.099-2.121-30.879-4.752-37.747-14.92-1.521-2.251-2.118-4.857-1.479-7.52 2.506-10.444 34.013-28.926 43.736-34.404 6.563-3.697 14.269-6.388 20.41-10.587 2.816-7.952 4.942-15.93 8.506-23.631 14.235-30.765 40.454-58.32 71.042-72.806 4.595-2.176 9.355-4.006 14.103-5.819-5.16-4.112-9.269-8.726-9.904-15.612-.369-4.008 1.054-7.607 3.623-10.656C394.3 3.5 401.602.66 408.452.186c11.557-.799 22.772 4.62 32.534 10.206 3.637 2.081 7.308 4.625 11.306 5.928Z"/><path fill="#356B91" d="m141.511 149.326 74.579.026.031 74.599 32.891.024-.021 27.611 10.79.057c-.799 4.874-1.454 9.646-1.469 14.593-.018 5.58.733 11.393-.341 16.893-1.751 8.966-6.876 21.28-9.598 30.603-4.663 15.967-8.115 31.952-11.012 48.31-1.136 6.414-2.457 12.865-3.054 19.353-.587 6.387-.576 12.877-.636 19.287-6.121 5.65-12.648 10.887-18.488 16.828.237 5.908.237 11.951 4.998 16.253 4.709 4.256 12.447 5.413 18.468 6.759 4.191 16.678 9.275 32.482 16.953 47.932-4.223 11.6-9.891 22.425-14.736 33.752-1.676 3.917-3.927 8.449-4.786 12.59-2.241 8.998-5.378 17.88-8.23 26.706-.656 1.873-1.208 3.955-2.168 5.69-3.105 9.076-5.284 19.015-6.823 28.489-.292 1.592-.495 2.985-1.341 4.401-.243.052-.485.109-.728.158-4.519.904-104.336-.158-216.896 0 0-143.24.062-84.761 0-333.309l34.41.033c-.084 8.67-.095 17.34-.034 26.01l31.68.025.034-76.777 46.47-.049-.063 47.276 29.246.046c-.915-37.979-.124-76.168-.126-114.169Z"/><path fill="#2F4758" d="m732.57 333.491 30.345.005-.118 42.484 8.201.021-.01 42.751 29.489-.171c0 60.396-.409 84.919-.409 186.515 0 101.596-.532-4.481-.532-4.481s-8.77-.212-12.487-.205c-12.478.027-25.281.639-37.717-.212 1.114-1.47 2.122-3.053 3.069-4.636 12.913-21.578 8.559-59.763 2.638-83.67-12.164-49.118-45.607-105.864-89.745-132.393 6.15-5.978 11.495-12.826 16.836-19.519 9.119 1.064 18.748.003 27.951.28l.023 34.743 14.52.008-.02-15.082 8.038-.021-.072-46.417Z"/><path fill="#83898C" d="M514.943 173.767c-2.831 2.377-7.291 5.502-7.493 9.573-.047.954.248 1.233.674 2.048 2.091 1.153 4.178.754 6.394.142 10.049-2.775 19.658-10.369 28.768-15.43 33.336-18.52 77.524-36.883 114.192-16.866 20.454 11.165 33.351 32.019 39.664 53.979 10.976 38.176.962 90.895-18.144 125.197-13.418 24.089-40.8 52.759-67.642 60.291-12.173 3.416-24.823 2.52-35.914-3.724-15.98-8.996-25.987-25.868-30.748-43.125-2.37-8.59-3.712-17.551-4.364-26.432-.666-9.064 1.335-33.121-2.691-39.651l-.966-.528c-2.271 2.579-5.221 29.965-6.201 35.492-.321 14.113.537 27.095 2.825 41.016-7.998 8.777-16.965 18.187-26.423 25.351-.541-1.068-1.226-2.1-1.358-3.298-.516-.613-1.014-1.234-1.727-1.634-2.022-1.135-4.662-.124-6.743.402-2.643-8.668-6.703-16.935-10.394-25.198 15.359-10.349 26.173-27.806 31.039-45.43 6.321-22.893 3.558-46.897-8.347-67.465-12.295-21.242-31.598-34.259-54.967-40.532 11.961-7.255 37.221-15.874 44.432-27.297 5.345 1.303 10.711 2.222 16.134 3.119Z"/><path fill="#656B6F" d="m505.516 377.802.479-.046c15.206-11.432 17.829-45.13 24.139-62.127l.338-.896c-.321 14.113.537 27.095 2.825 41.016-7.998 8.777-16.965 18.187-26.423 25.351-.541-1.068-1.226-2.1-1.358-3.298Z"/><path fill="#101F24" d="M624.558 176.71c2.722-.191 5.479-.113 8.201.061 14.435.923 26.245 7.007 35.72 17.791-11.218-5.371-21.475-7.196-33.898-6.294-26.298 1.909-45.042 13.959-61.986 33.558-7.632 9.073-15.368 19.136-20.419 29.896a35.686 35.686 0 0 1-.407-3.587c-.943-15.861 7.188-32.483 17.423-44.154 14.311-16.319 33.731-25.942 55.366-27.271Z"/><path fill="#8C9397" d="M286.766 222.955c18.997.456 38.277.325 57.209-1.301 13.587-1.167 27.007-3.372 40.554-4.735-15.917 13.24-28.653 36.814-30.503 57.398a83.956 83.956 0 0 0 19.653 61.719c14.409 17.032 35.361 29.226 57.843 30.926a92.707 92.707 0 0 0 30.086-2.635c2.171 8.607 5.2 17.756 6.032 26.582-1.495 1.15-3.045 2.262-4.456 3.513 1.345 6.882 3.842 13.17 7.125 19.364-20.09 6.845-39.882 11.343-60.493 3.85 4.402-3.562 8.268-7.081 11.956-11.369 7.346-8.503 16.314-10.209 26.474-13.621.071-.967.097-1.975-.064-2.935-.506-3.018-2.946-4.644-5.309-6.22-18.585-.499-22.82 7.86-35.729 18.69-3.873 3.249-8.006 5.657-12.53 7.88-.02-8.068-1.283-15.795-6.501-22.278-5.252-6.525-15.381-12.478-23.785-13.094-13.147-.964-15.956 10.487-21.415 19.51-3.121 5.159-7.343 10.224-12.028 14.036-4.096 3.333-8.71 6.303-13.315 8.881-4.567 2.556-10.205 4.869-14.035 8.45-2.272 2.125-3.79 4.931-3.824 8.087-.052 4.715 3.016 9.223 6.286 12.375 7.115 6.857 16.762 7.217 26.037 7.191a62.583 62.583 0 0 0-.746 5.948c-.748 9.636 1.631 19.764 8.115 27.149 3.837 4.37 8.855 7.267 14.605 8.24 16.643 2.818 27.397-10.713 33.604-10.358 5.595 5.458 1.152 14.6 1.377 21.265.174 5.157 5.116 8.165 5.876 13.07.466 3.009-.676 6.984-2.635 9.306-5.339 6.331-16.315-2.663-22.972-2.481-6.974.192-13.638 3.974-20.86 4.33-22.181 1.095-42.278-7.558-58.588-22.4-30.752-27.985-40.537-68.423-42.277-108.357 15.511-5.903 31.295-3.735 46.329 2.641-3.269-3.367-6.697-6.325-10.754-8.715-10.818-6.372-22.714-7.42-34.71-4.238 1.327-11.478 3.119-22.598 6.006-33.799 16.806-3.942 33.415-2.538 49.677 2.869-3.154-3.112-6.483-6.029-10.309-8.293-11.155-6.602-25.87-7.257-38.156-4.026a276.865 276.865 0 0 1 2.88-13.645c1.363-5.641 2.983-11.056 8.319-14.138 13.721-7.928 36.334-5.26 50.898-1.551-4.059-3.395-8.408-6.269-13.287-8.354-12.365-5.283-26.801-4.766-39.124.235 1.158-6.248 2.087-12.816 3.866-18.908 1.425-4.881 3.601-8.182 8.171-10.536 13.693-7.055 33.992-5.386 48.239-1.118-5.487-4.585-11.257-8.541-18.093-10.821-12.583-4.195-23.115-1.629-34.576 4.126-.168-16.737 6.45-32.95 13.857-47.705Z"/><path fill="#656B6F" d="M448.246 392.646c-1.389 3.786-2.887 5.224-6.553 6.927-4.766 2.213-9.927 3.575-14.755 5.755-1.783.806-3.22.923-5.166.939 7.346-8.503 16.314-10.209 26.474-13.621Z"/><path fill="#87694E" d="M652.25 389.806c6.433 4.426 13.268 8.338 19.323 13.284 38.898 31.307 66.995 92.25 72.298 141.359 1.532 14.186 2.452 34.59-7.36 46.357-4.937 5.921-13.178 9.042-20.727 9.533-13.911.904-28.36-.018-42.319.002-15.367.022-31.23.997-46.521-.024-3.136-.209-6.062-.831-9.031-1.873 4.187-6.181 8.355-12.307 11.795-18.95 12.966-25.041 17.261-53.624 14.545-81.482 10.403 4.274 21.003 8.05 31.55 11.951 8.407 3.109 16.722 6.412 25.306 9.007-2.355-4.589-4.667-8.556-8.32-12.23-12.853-12.925-38.77-21.197-55.748-27.478-1.954-3.338-5.931-11.993-9.791-12.838-.867-.19-1.275.202-2.035.553-1.629 1.861-1.972 4.638-2.527 6.994-11.529-3.539-26.745-7.207-35.158-16.217 3.143-4.47 6.783-8.579 10.309-12.747l21.791-25.862c4.384-5.285 8.656-11.427 13.781-15.993 5.619-5.005 12.854-8.59 18.839-13.346Z"/><path fill="#6C523D" d="M652.25 389.806c6.433 4.426 13.268 8.338 19.323 13.284-13.137 9.51-57.744 44.058-73.734 41.917l21.791-25.862c4.384-5.285 8.656-11.427 13.781-15.993 5.619-5.005 12.854-8.59 18.839-13.346Z"/><path fill="#A6ACAF" d="M433.943 217.026c35.862-2.134 66.669 25.199 68.821 61.061 2.151 35.861-25.167 66.682-61.028 68.851-35.885 2.17-66.731-25.171-68.884-61.057-2.153-35.887 25.203-66.72 61.091-68.855Z"/><path fill="#101F24" d="M431.875 259.012c4.158-.134 8.209.824 11.703 3.131 5.244 3.463 7.804 9.23 8.871 15.21 1.346 7.544.343 15.412-4.314 21.722-4.621 6.263-10.368 7.944-17.725 8.925-5.015-.446-9.267-1.452-13.373-4.577-5.033-3.83-7.929-9.411-8.748-15.606-.922-6.988.277-14.492 4.814-20.093 4.832-5.965 11.433-7.962 18.772-8.712Z"/><path fill="#FCFCFA" d="M439.245 272.6a4.603 4.603 0 1 1 2.534 8.851 4.603 4.603 0 0 1-2.534-8.851ZM478.92 241.93c5.652 3.442 9.989 11.492 12.446 17.428 6.018 14.546 6.09 33.533-.062 48.043-6.365 15.009-19.765 24.798-34.475 30.705-3.002.827-6.051 1.52-9.077 2.259 15.348-9.803 26.911-21.284 34.058-38.3 8.862-21.101 5.51-39.723-2.89-60.135Z"/><path fill="#101F24" d="M427.815 235.171a36.77 36.77 0 0 1 2.439-.125c9.251-.091 16.212 3.156 22.739 9.517-5.66-1.603-11.724-1.916-17.576-1.581-11.848.678-21.977 6.084-29.832 14.868-4.033 4.664-6.99 10.14-11.031 14.798l-.676-.119c-.144-.416-.239-.629-.313-1.043-1.166-6.605 3.231-15.697 7.178-20.788 6.768-8.728 16.154-14.115 27.072-15.527Z"/><path fill="#87694E" d="M439.341 39.189c3.91-.677 8.425-.32 12.406-.28.306.309.608.621.906.937 27.136 28.577 29.197 70.766 28.286 107.989-34.338-9.342-69.921-16.42-105.592-16.937a339.336 339.336 0 0 0-56.027 3.56c6.02-14.226 12.923-27.541 22.347-39.86 26.785-35.014 54.366-49.59 97.674-55.409ZM404.434 562.769c18.263-21.712 46.779-41.937 72.059-54.727 2.804 6.119 5.371 10.502 10.401 15.08-1.177 9.47 4.059 19.967 9.733 27.207 4.834 6.169 11.251 10.271 19.118 11.208 6.786.808 11.965-.916 17.556-4.661 4.033 2.85 8.442 5.178 12.42 8.061-1.079 5.583-1.335 11.906 1.969 16.845 5.587 8.352 25.467 14.22 34.422 18.732-21.259-.569-42.628-.15-63.897-.044l-77.954.012-29.883.05c-4.404.008-10.303.677-14.541-.299.32-7.863 1.471-26.322 4.693-32.829.889-1.795 2.495-3.241 3.904-4.635Z"/><path fill="#6C523D" d="M404.434 562.769c18.263-21.712 46.779-41.937 72.059-54.727 2.804 6.119 5.371 10.502 10.401 15.08-1.177 9.47 4.059 19.967 9.733 27.207 4.834 6.169 11.251 10.271 19.118 11.208 6.786.808 11.965-.916 17.556-4.661 4.033 2.85 8.442 5.178 12.42 8.061-1.079 5.583-1.335 11.906 1.969 16.845 5.587 8.352 25.467 14.22 34.422 18.732-21.259-.569-42.628-.15-63.897-.044l-77.954.012-29.883.05c-4.404.008-10.303.677-14.541-.299 4.738-.554 9.784-.282 14.56-.269l25.191.068c31.203.009 62.505.51 93.693-.136-5.091-6.669-5.862-12.735-6.219-20.857-15.509-.263-28.766-2.325-40.781-12.957-11.976-10.599-15.344-23.197-16.311-38.634-14.072 8.172-27.875 17.213-41.509 26.104-5.668 2.184-10.828 5.085-16.02 8.217-1.405.678-2.458.876-4.007 1Z"/><path fill="#87694E" d="M408.441 561.769c5.192-3.132 10.352-6.033 16.02-8.217-2.091 3.998-6.35 5.909-10.487 7.222-1.804.572-3.654.838-5.533.995Z"/><path fill="#101F24" d="M435.361 560.169c2.921-.114 5.198.056 7.747 1.611 2.749 1.675 4.554 4.295 5.299 7.414.901 3.777.258 8.045-1.915 11.288-2.867 4.277-7.043 5.557-11.829 6.422-3.202.097-6.304.034-9.123-1.68-2.314-1.408-3.873-3.592-4.473-6.234-.928-4.083.283-8.555 2.634-11.944 2.892-4.168 6.79-6.024 11.66-6.877Z"/><path fill="#83898C" d="M484.096 467.994c-4.013-4.848-6.689-12.104-6.128-18.399.358-4.018 2.255-7.34 5.347-9.894 10.868-8.977 29.112-11.979 42.756-10.402a52.838 52.838 0 0 1 35.429 19.807c4.271 5.456 8.132 11.244 12.289 16.79 3.015 4.022 6.826 8.236 8.938 12.813 2.573 5.575.48 23.727-.38 30.548-1.55 12.302-5.257 23.599-9.218 35.267-1.583 4.309-3.236 8.516-5.126 12.702-12.977-3.992-21.163-8.585-29.261-19.567-2.876-3.182-6.07-5.905-9.707-8.189-4.053 2.386-6.06 5.025-8.123 9.213 1.072 1.908 3.33 5.076 2.953 7.315-.092.544-.167.487-.721.743-2.811 1.302-6.877.33-9.574-.856-6.319-2.781-9.878-8.828-12.105-15.068-1.363-3.82-2.34-7.868-3.043-11.86 8.568-14.9 17.527-17.214 30.716-26.49a42.348 42.348 0 0 0-30.946 9.841c-2.057 1.743-3.841 3.674-5.518 5.781-4.206-7.377-7.901-14.948-5.425-23.689 2.574-9.089 11.389-14.877 19.266-19.087 6.888-3.683 13.672-5.484 20.841-8.199.938-.356 1.685-.686 2.176-1.579-1.838-1.737-9.017-1.475-11.554-1.393-12.493.402-24.497 5.713-33.882 13.852Z"/><path fill="#656B6F" d="M538.742 537.659c3.566.47 7.13 1.983 10.546 3.094 8.244 2.679 15.159 3.837 23.841 3.771-1.583 4.309-3.236 8.516-5.126 12.702-12.977-3.992-21.163-8.585-29.261-19.567Z"/><path fill="#87694E" d="M467.944 38.489c22.3 2.191 42.926 7.437 62.562 18.613 30.692 17.469 45.944 43.299 55.013 76.506-4.446 1.37-8.784 3.04-13.138 4.672a219.66 219.66 0 0 0-17.794 7.714c-3.827 1.837-7.822 4.334-11.883 5.484-3.066.868-39.936-.626-45.687-1.039.326-4.667.505-9.343.536-14.022.426-33.119-5.715-73.423-29.609-97.928ZM354.607 145.714c39.325-2.375 79.404 3.753 116.89 15.408-30.719 14.435-67.895 22.98-101.541 26.527-38.624 3.882-76.093 4.691-113.88-5.277 5.864-4.675 12.652-8.376 19.027-12.297 28.292-17.4 46.734-22.78 79.504-24.361ZM302.973 534.452c23.808 11.583 42.753 12.699 67.808 5.107 5.112 2.259 9.797 3.688 15.317 4.636l-.621 7.708c-.243 16.066-2.848 32.439-4 48.498-31.354-.01-62.756.351-94.105-.112 2.547-16.179 5.109-32.486 9.743-48.223 1.434-6.169 3.275-11.832 5.858-17.614Z"/><path fill="#6C523D" d="M302.973 534.452c23.808 11.583 42.753 12.699 67.808 5.107 5.112 2.259 9.797 3.688 15.317 4.636l-.621 7.708c-7.777-.603-14.917.944-22.514 2.45-15.642 3.101-33.741 7.952-49.659 4.855-6.379-1.241-11.455-5.936-16.189-7.142 1.434-6.169 3.275-11.832 5.858-17.614Z"/><path fill="#87694E" d="M597.358 481.15c4.474 1.391 8.861 3.372 13.264 5.001 6.524 2.413 13.414 4.513 19.651 7.577 3.757 21.94-2.23 53.785-11.363 74.145-3.802 8.477-8.813 16.092-13.957 23.786-3.378-1.724-7.227-2.963-10.76-4.371-7.698-3.067-15.354-6.114-22.774-9.822 15.628-19.809 23.911-47.362 25.886-72.384.628-7.953.276-15.969.053-23.932Z"/><path fill="#6C523D" d="M266.241 503.38c2.815 2.775 5.156 6.01 8.097 8.782 4.97 4.687 10.459 8.755 15.458 13.404-9.259 24.4-14.739 48.771-17.093 74.776-5.348.178-10.733.043-16.085.035-7.95.097-15.912-.027-23.862-.057 6.412-33.127 18.623-66.716 33.485-96.94Z"/><path fill="#87694E" d="M474.871 423.819c.404.211.837.64 1.193.93.127 1.093.019 1.214-.587 2.096-1.149 1.672-2.83 3.022-4.15 4.568-4.366 5.112-7.012 11.967-7.304 18.651-.491 11.203 4.237 21.024 11.712 29.083-1.843 4.414-2.705 8.09-2.954 12.872-24.67 13.046-43.152 26.407-63.92 45.102-2.829 2.547-5.43 5.403-8.084 8.134 5.653-11.348 9.297-23.484 14.636-34.986 14.005-30.169 36.053-62.765 59.458-86.45Z"/><path fill="#6C523D" d="M528.471 384.126c3.975-3.853 7.876-7.668 11.433-11.923 8.76 16.786 21.365 30.338 39.874 36.056 9.52 2.94 18.401 2.78 28.209 2.148a713.856 713.856 0 0 1-20.044 23.229c-3.247 3.864-6.515 7.71-9.806 11.537a615.398 615.398 0 0 0-4.267-5.145c-15.863-18.892-31.277-26-55.605-28.107-2-4.793-3.561-9.884-5.291-14.788 5.466-3.929 10.479-8.534 15.497-13.007Z"/><path fill="#87694E" d="M512.974 397.133c5.466-3.929 10.479-8.534 15.497-13.007 6.212 13.538 30.712 33.442 43.612 41.31 5.018 3.06 11.114 4.841 15.86 8.2-3.247 3.864-6.515 7.71-9.806 11.537a615.398 615.398 0 0 0-4.267-5.145c-15.863-18.892-31.277-26-55.605-28.107-2-4.793-3.561-9.884-5.291-14.788Z"/><path fill="#656B6F" d="M296.139 206.347c46.75 1.51 86.354-3.116 131.863-13.902a343.944 343.944 0 0 0 43.065-13.287c7.483-2.865 14.998-7.104 22.697-9.158 1.693-.451 3.415.183 5.045.648-7.211 11.423-32.471 20.042-44.432 27.297-22.387-3.405-44.144-.162-62.755 13.543-2.296 1.692-4.674 3.992-7.093 5.431-13.547 1.363-26.967 3.568-40.554 4.735-18.932 1.626-38.212 1.757-57.209 1.301 2.743-5.847 5.63-11.331 9.373-16.608Z"/><path fill="url(#b)" d="m387.015 432.715.779.039c6.369 5.89 20.571 40.918 25.299 50.754a646.288 646.288 0 0 1-7.857 16.123c-.24-8.009-.841-17.389-5.562-24.203-2.494-3.601-5.473-5.545-9.734-6.412-12.362-.432-11.262 3.836-20.325 9.083-3.855 2.232-9.69 3.399-14.04 2.189-3.468-.966-5.982-3.391-7.64-6.525-4.099-7.75-2.387-15.295-.122-23.182 5.519-1.977 10.835-4.175 15.984-6.996 8.045-4.408 13.698-10.211 23.218-10.87Z"/><path fill="#FCFCFA" d="M365.044 386.516c4.017-.163 8.317 1.604 11.482 3.984 3.78 2.843 7.051 7.06 7.512 11.9.504 5.278-2.179 10.357-5.434 14.325-10.147 12.366-30.8 21.493-46.481 23.044-6.722.768-12.657-.781-18.492-4.024 3.647-2.603 7.8-4.739 11.636-7.076 12.831-7.816 21.364-15.746 29.192-28.586 2.928-4.801 5.671-10.571 10.585-13.567Z"/><path fill="#2F4758" d="M404.494 431.87c15.458 3.572 29.433 3.432 45.024 1.291-5.387 5.588-9.844 12.465-14.653 18.585-4.289 5.601-8.122 11.584-12.054 17.44-5.99-12.508-12.67-24.65-18.317-37.316Z"/><path fill="#172931" d="M496.143 389.491c.717-.03.974.087 1.623.35.908 9.74 5.371 18.153 7.958 27.511-5.829 1.329-11.438 3.358-17.077 5.322-2.648-8.508-7.329-16.847-11.14-24.91 6.039-3.355 12.177-5.878 18.636-8.273Z"/><path fill="#87694E" d="M404.968 15.061c1.896-.084 3.778-.104 5.669.08 5.514.54 21.463 5.157 24.992 9.401l-.318.654-2.536.667c-8.343 1.224-19.029 2.4-26.193-3.12-1.571-1.21-3.139-2.73-3.402-4.77.334-1.467.655-1.926 1.788-2.912ZM493.064 15.206l2.725.399c.974.837.934.782 1.056 2.062-.532 1.127-1.011 1.945-1.931 2.803-6.88 6.417-14.621 5.787-23.239 5.506l-4.828-.732c8.411-4.649 16.531-9.085 26.217-10.038Z"/><path fill="#172931" d="M481.156 363.933c2.171 1.232 5.513 12.85 6.558 15.837l-8.044 4.1-1.115.05c-2.824-2.924-4.17-11.418-5.294-15.451 2.468-1.69 5.277-3.073 7.895-4.536Z"/><path fill="#fff" d="M235.804 417.968c1.547 1.948 1.947 8.297 2.419 10.95l-4.886-2.038c-2.081-.902-3.968-2.136-5.898-3.319 2.512-2.318 5.421-3.897 8.365-5.593Z"/><path fill="#92BBD8" d="M152 164h21v13h-21z"/><path fill="#92BBD8" d="M152 164h21v13h-21zM74 236h21v13H74zM74 291h21v13H74zM74 315h21v13H74zM181 164h21v13h-21z"/><path fill="#92BBD8" d="M181 164h21v13h-21zM152 184h21v13h-21zM152 378h21v13h-21zM152 359h21v13h-21zM152 315h21v13h-21z"/><path fill="#fff" d="M309.908 676.02c-.429 6.875-.823 12.46-1.181 16.757a930.7 930.7 0 0 1-.752 10.528 704.154 704.154 0 0 1-.537 6.338 101.239 101.239 0 0 0-.323 4.296c1.647 4.297 4.082 7.806 7.305 10.528 3.223 2.65 7.09 3.974 11.601 3.974 3.939 0 7.377-1.217 10.313-3.652 3.008-2.506 5.478-5.729 7.412-9.668 2.005-3.939 3.509-8.343 4.512-13.213 1.002-4.87 1.504-9.704 1.504-14.502 0-3.939-.358-7.591-1.074-10.957-.645-3.366-1.648-6.266-3.008-8.701-1.361-2.506-3.08-4.44-5.157-5.801-2.005-1.432-4.404-2.148-7.197-2.148-2.291 0-4.583.465-6.875 1.396-2.22.86-4.368 2.006-6.445 3.438a32.726 32.726 0 0 0-5.694 4.726c-1.647 1.719-3.007 3.402-4.082 5.049l-.322 1.612Zm2.149-31.475c6.015-4.082 12.317-7.341 18.906-9.775 6.588-2.435 13.463-3.653 20.625-3.653 6.732 0 12.532 1.397 17.402 4.19 4.942 2.721 9.024 6.445 12.246 11.172 3.223 4.654 5.586 10.026 7.09 16.113 1.576 6.087 2.363 12.461 2.363 19.121 0 5.801-.572 11.673-1.718 17.617a95.858 95.858 0 0 1-5.049 17.295 83.08 83.08 0 0 1-8.272 15.576c-3.294 4.87-7.089 9.131-11.386 12.783-4.226 3.581-8.952 6.41-14.18 8.487s-10.885 3.115-16.973 3.115a38.382 38.382 0 0 1-15.468-3.223c-4.87-2.148-9.454-4.941-13.75-8.379 0 .358-.108 1.683-.323 3.975-.143 2.22-.358 4.941-.644 8.164-.287 3.223-.609 6.66-.967 10.313-.358 3.724-.68 7.197-.967 10.419-.286 3.223-.537 5.944-.752 8.165-.143 2.291-.215 3.616-.215 3.974v1.397c.072.429.108.823.108 1.181 0 .573-.287 1.039-.86 1.397-.501.429-1.683.895-3.544 1.396l-28.252 7.197c-.788.215-1.827.538-3.116.967-1.289.502-2.542.752-3.759.752-1.003 0-1.898-.25-2.686-.752-.716-.501-1.074-1.432-1.074-2.793l13.105-157.265c.215-2.364.466-3.975.752-4.834.358-.931 1.182-1.54 2.471-1.826 6.517-1.29 13.213-2.579 20.088-3.868a183.13 183.13 0 0 0 20.088-5.156c.573 0 .895.108.966.322.144.144.215.394.215.752 0 .144-.035.358-.107.645 0 .286-.108.931-.322 1.933a183.037 183.037 0 0 1-.752 4.62 678.575 678.575 0 0 1-1.289 8.486Zm170.586 29.863c-.717-1.647-1.719-3.33-3.008-5.049a26.77 26.77 0 0 0-4.297-4.726 21.434 21.434 0 0 0-5.371-3.438 13.941 13.941 0 0 0-6.123-1.396c-2.936 0-5.694 1.217-8.272 3.652-2.578 2.435-4.834 5.694-6.767 9.776-1.934 4.01-3.474 8.629-4.619 13.857-1.075 5.156-1.612 10.527-1.612 16.113 0 3.438.287 6.696.86 9.776.644 3.007 1.611 5.657 2.9 7.949s2.936 4.118 4.941 5.478c2.077 1.361 4.548 2.041 7.413 2.041 4.296 0 8.235-1.324 11.816-3.974 3.581-2.722 6.624-6.231 9.131-10.528.071-1.503.179-3.294.322-5.371.143-2.076.322-4.583.537-7.519l.752-10.528c.358-4.082.788-8.916 1.289-14.501l.108-1.612Zm35.556 64.883c-.716 7.09-2.327 13.714-4.834 19.873-2.506 6.159-5.693 11.781-9.56 16.865a74.507 74.507 0 0 1-13.106 13.75c-4.87 4.082-10.062 7.52-15.576 10.313-5.443 2.793-11.064 4.905-16.865 6.338-5.801 1.504-11.53 2.256-17.188 2.256-3.008 0-6.087-.108-9.238-.323a65.158 65.158 0 0 1-9.238-1.289 42.621 42.621 0 0 1-8.594-2.578c-2.721-1.074-5.156-2.471-7.305-4.189v-.108c0-.358.251-1.611.752-3.76.573-2.148 1.218-4.69 1.934-7.627a512.362 512.362 0 0 0 2.363-8.916c.86-3.079 1.576-5.729 2.149-7.949.286-1.002.572-1.683.859-2.041.286-.358.609-.537.967-.537.429 0 .68.036.752.108 2.077 1.36 4.01 2.47 5.8 3.33a28.248 28.248 0 0 0 5.801 2.148c2.077.573 4.333.967 6.768 1.182 2.435.215 5.264.322 8.486.322 5.013 0 9.453-.967 13.32-2.9 3.868-1.934 7.198-4.441 9.991-7.52 2.793-3.079 5.013-6.481 6.66-10.205 1.719-3.652 2.9-7.269 3.545-10.85-5.156 3.438-10.384 6.231-15.684 8.379-5.299 2.149-10.635 3.223-16.006 3.223-7.376 0-13.75-1.504-19.121-4.512-5.371-2.936-9.811-6.911-13.32-11.924-3.509-5.013-6.123-10.742-7.842-17.187-1.647-6.517-2.471-13.32-2.471-20.41 0-5.586.502-11.208 1.504-16.865a97.388 97.388 0 0 1 4.619-16.543c2.077-5.3 4.62-10.241 7.627-14.825 3.008-4.655 6.482-8.701 10.42-12.138a45.898 45.898 0 0 1 13.106-8.057c4.798-2.005 10.026-3.008 15.683-3.008 6.159 0 11.853 1.361 17.081 4.082a63.5 63.5 0 0 1 14.394 10.098c.143-1.289.251-2.292.322-3.008.072-.788.251-1.396.537-1.826.287-.43.752-.752 1.397-.967.716-.215 1.719-.465 3.008-.752.787-.143 2.22-.43 4.297-.859a492.339 492.339 0 0 1 7.412-1.719 601.335 601.335 0 0 1 9.453-2.041 687.194 687.194 0 0 0 10.42-2.256c.859-.215 1.647-.322 2.363-.322 2.22 0 3.33 1.432 3.33 4.297v1.074c0 .286-.036.609-.107.967l-11.065 101.406Zm73.369-63.271c-.429 6.875-.823 12.46-1.181 16.757a907.721 907.721 0 0 1-.752 10.528 704.154 704.154 0 0 1-.537 6.338 101.239 101.239 0 0 0-.323 4.296c1.648 4.297 4.082 7.806 7.305 10.528 3.223 2.65 7.09 3.974 11.602 3.974 3.938 0 7.376-1.217 10.312-3.652 3.008-2.506 5.479-5.729 7.412-9.668 2.005-3.939 3.509-8.343 4.512-13.213 1.003-4.87 1.504-9.704 1.504-14.502 0-3.939-.358-7.591-1.074-10.957-.645-3.366-1.647-6.266-3.008-8.701-1.361-2.506-3.08-4.44-5.156-5.801-2.006-1.432-4.405-2.148-7.198-2.148-2.291 0-4.583.465-6.875 1.396-2.22.86-4.368 2.006-6.445 3.438a32.682 32.682 0 0 0-5.693 4.726c-1.647 1.719-3.008 3.402-4.082 5.049l-.323 1.612Zm2.149-31.475c6.015-4.082 12.318-7.341 18.906-9.775 6.589-2.435 13.464-3.653 20.625-3.653 6.732 0 12.533 1.397 17.402 4.19 4.942 2.721 9.024 6.445 12.246 11.172 3.223 4.654 5.586 10.026 7.09 16.113 1.576 6.087 2.364 12.461 2.364 19.121 0 5.801-.573 11.673-1.719 17.617a95.858 95.858 0 0 1-5.049 17.295 83.134 83.134 0 0 1-8.271 15.576c-3.295 4.87-7.09 9.131-11.387 12.783-4.225 3.581-8.952 6.41-14.18 8.487s-10.885 3.115-16.973 3.115a38.382 38.382 0 0 1-15.468-3.223c-4.87-2.148-9.453-4.941-13.75-8.379 0 .358-.108 1.683-.323 3.975-.143 2.22-.358 4.941-.644 8.164-.287 3.223-.609 6.66-.967 10.313-.358 3.724-.68 7.197-.967 10.419-.286 3.223-.537 5.944-.752 8.165-.143 2.291-.214 3.616-.214 3.974v1.397c.071.429.107.823.107 1.181 0 .573-.286 1.039-.859 1.397-.502.429-1.683.895-3.545 1.396l-28.252 7.197c-.788.215-1.826.538-3.116.967-1.289.502-2.542.752-3.759.752-1.003 0-1.898-.25-2.686-.752-.716-.501-1.074-1.432-1.074-2.793l13.105-157.265c.215-2.364.466-3.975.752-4.834.358-.931 1.182-1.54 2.471-1.826 6.517-1.29 13.213-2.579 20.088-3.868a183.13 183.13 0 0 0 20.088-5.156c.573 0 .895.108.967.322.143.144.215.394.215.752 0 .144-.036.358-.108.645 0 .286-.107.931-.322 1.933a178.48 178.48 0 0 1-.752 4.62 678.575 678.575 0 0 1-1.289 8.486Zm95.068 60.908c.931-9.811 1.862-19.515 2.793-29.111.931-9.597 1.755-19.444 2.471-29.541.143-2.363.358-3.975.644-4.834.358-.931 1.182-1.54 2.471-1.826a3093.967 3093.967 0 0 1 19.121-3.76 166.655 166.655 0 0 0 19.336-5.156c.215-.072.537-.108.967-.108.788 0 1.182.287 1.182.86l-9.668 104.628c-.215 2.364-.466 4.011-.752 4.942-.287.859-1.075 1.432-2.364 1.719a350.323 350.323 0 0 0-18.476 6.23 858.061 858.061 0 0 1-19.766 6.983c-.215.071-.537.107-.967.107-.787 0-1.181-.358-1.181-1.074 0-.072.071-1.039.215-2.901.143-1.862.322-4.261.537-7.197.286-2.936.573-6.23.859-9.883l.859-10.957c.358-3.652.681-7.161.967-10.527.287-3.366.537-6.231.752-8.594Zm8.057-85.723c.215-3.079.358-5.442.429-7.089.144-1.648.251-2.865.323-3.653.071-.859.107-1.396.107-1.611v-.43c.072-.143.108-.358.108-.644.071-.358.143-1.039.214-2.041a869.202 869.202 0 0 1 .967-12.891c.143-2.363.358-3.975.645-4.834.358-.931 1.181-1.54 2.47-1.826a3094.71 3094.71 0 0 1 19.122-3.76 166.438 166.438 0 0 0 19.335-5.156c.215-.072.538-.107.967-.107.215.429.502.716.86.859l.322.215-2.363 29.433c-.215 2.364-.502 4.011-.86 4.942-.286.931-1.038 1.504-2.256 1.718a654.029 654.029 0 0 0-18.476 3.76 930.78 930.78 0 0 1-19.766 4.082c-.215.072-.537.108-.967.108-.787 0-1.181-.358-1.181-1.075Z"/></g><defs><linearGradient id="b" x1="361.145" x2="399.243" y1="442.781" y2="501.392" gradientUnits="userSpaceOnUse"><stop stop-color="#705640"/><stop offset="1" stop-color="#9B795D"/></linearGradient><clipPath id="a"><path fill="#fff" d="M0 0h801v836H0z"/></clipPath></defs></svg>