<svg xmlns="http://www.w3.org/2000/svg" viewBox="0 0 801 836" width="200" height="209" fill="none">
  <g clip-path="url(#a)">
    <path fill="#000" d="m452.3 16.32.64-.17c4.46-1.28 8.45-3.83 12.5-6.05 11.7-6.41 26.64-14.41 39.81-7.1a15.87 15.87 0 0 1 7.55 9.66c1.26 4.72.87 9.68-1.66 13.9a27.83 27.83 0 0 1-3.94 4.9 128.65 128.65 0 0 1 78.37 59.9c7.13 12.28 11.52 25.2 15.34 38.78 25.3-3.83 54.59-.51 75.67 15.07 24.14 17.84 36.69 48.63 40.9 77.54 5.98 40.93-4.71 85.41-25.14 121.01-2.99 5.21-6 10.6-9.6 15.42l-.61.8c9.12 1.06 18.75 0 27.95.28l.02 34.74 14.52.01-.02-15.08 8.04-.02-.07-46.42h30.34l-.11 42.49 8.2.02-.01 42.75 29.49-.17-.03 130.55.03 36.2c0 6.35.58 13.49-.41 19.77-.64 52.78-.13 105.57-.12 158.36 0 8.4.56 17.56-1.3 25.8-2.37 10.53-8.4 20.77-15.9 28.45-11.85 12.17-27.35 18.13-44.17 18.31-51.3.57-102.66-.01-153.97-.01H124.86l-44.63.02c-9.07.01-18.5.52-27.51-.55-13.16-1.57-25.65-8.01-35-17.33-8.57-8.52-14.77-19.89-16.94-31.8-1.82-9.95-.85-21.17-.84-31.27l.04-53.83-.03-199.16-.06-183.16 34.41.03c-.08 8.67-.1 17.34-.03 26.01l31.68.03v-49h46.5v142H158c-.91-37.98 0-161 0-199h49v93h36l16.78-80.36c2.66-9.67 5.41-19.1 9.31-28.36 2.62-6.21 6-12.22 8.42-18.48-11.1-2.13-30.88-4.76-37.75-14.92a9.32 9.32 0 0 1-1.48-7.52c2.5-10.45 34.02-28.93 43.74-34.4 6.56-3.7 14.27-6.4 20.4-10.6 2.82-7.95 4.95-15.93 8.51-23.63 14.24-30.76 40.46-58.32 71.05-72.8 4.6-2.18 9.35-4 14.1-5.82-5.16-4.11-9.27-8.73-9.9-15.61-.37-4.01 1.05-7.61 3.62-10.66C394.3 3.5 401.6.66 408.45.2c11.56-.8 22.77 4.62 32.54 10.2 3.63 2.08 7.3 4.63 11.3 5.93Z"/>
    <path fill="#325E7E" d="M146 206h87.67v126H243c-3.37 14.77-2.74 13.68-5.64 30.04-1.14 6.42-2.46 12.87-3.05 19.35-.59 6.4-.58 12.88-.64 19.3-6.12 5.64-12.65 10.88-18.49 16.82.24 5.9.24 11.95 5 16.25 4.71 4.26 12.45 5.42 18.47 6.76 4.19 16.68 9.27 32.48 16.95 47.93-4.22 11.6-9.89 22.43-14.73 33.76-1.68 3.91-3.93 8.44-4.79 12.59-2.24 9-5.38 17.88-8.23 26.7-.66 1.88-1.2 3.96-2.17 5.7-3.1 9.07-5.28 19-6.82 28.48-.3 1.6-.5 2.99-1.34 4.4l-.73.16c-4.52.9-104.34-.16-216.9 0C-.1 457-.04 567-.1 318.46l34.41.03c-.08 8.67-.1 17.34-.03 26H43V292h69v108.68h10c-.44-18.19-.1-65.17 0-87.68h24V206ZM732.57 333.5h30.34l-.11 42.48 8.2.02-.01 42.75 29.49-.17c0 60.4-.41 84.92-.41 186.52 0 101.6-.53-4.49-.53-4.49s-8.77-.2-12.5-.2c-12.47.03-25.27.64-37.7-.21a51.14 51.14 0 0 0 3.06-4.64c12.91-21.58 8.56-59.76 2.64-83.67-12.16-49.12-45.6-105.86-89.75-132.4 6.15-5.97 11.5-12.82 16.84-19.51 9.12 1.06 18.75 0 27.95.28l.02 34.74 14.52.01-.02-15.08 8.04-.02-.07-46.42Z"/>
    <path fill="#83898C" d="M514.94 173.77c-2.83 2.37-7.29 5.5-7.49 9.57-.05.95.25 1.23.67 2.05 2.1 1.15 4.18.75 6.4.14 10.05-2.78 19.66-10.37 28.77-15.43 33.33-18.52 77.52-36.88 114.19-16.87 20.45 11.17 33.35 32.02 39.66 53.98 10.98 38.18.96 90.9-18.14 125.2-13.42 24.09-40.8 52.76-67.64 60.3-12.18 3.4-24.83 2.51-35.92-3.73-15.98-9-25.99-25.87-30.75-43.13a137.62 137.62 0 0 1-4.36-26.43c-.67-9.06 1.33-33.12-2.7-39.65l-.96-.53c-2.27 2.58-5.22 29.97-6.2 35.5-.32 14.1.54 27.09 2.83 41-8 8.79-16.97 18.2-26.43 25.36-.54-1.07-1.22-2.1-1.35-3.3-.52-.61-1.02-1.23-1.73-1.63-2.02-1.14-4.66-.13-6.74.4-2.65-8.67-6.7-16.94-10.4-25.2 15.36-10.35 26.18-27.8 31.04-45.43 6.32-22.9 3.56-46.9-8.35-67.46-12.3-21.24-31.6-34.26-54.96-40.53 11.96-7.26 37.22-15.88 44.43-27.3a217.8 217.8 0 0 0 16.13 3.12Z"/>
    <path fill="#656B6F" d="m505.52 377.8.48-.04c15.2-11.44 17.82-45.13 24.13-62.13l.34-.9c-.32 14.12.54 27.1 2.83 41.02-8 8.78-16.97 18.19-26.43 25.35-.54-1.07-1.22-2.1-1.35-3.3Z"/>
    <path fill="#101F24" d="M624.56 176.71a61.5 61.5 0 0 1 8.2.06c14.43.92 26.24 7 35.72 17.8-11.22-5.38-21.48-7.2-33.9-6.3-26.3 1.9-45.04 13.96-61.99 33.56-7.63 9.07-15.36 19.13-20.41 29.9-.2-1.2-.34-2.4-.41-3.6-.94-15.86 7.19-32.48 17.42-44.15 14.31-16.32 33.73-25.94 55.37-27.27Z"/>
    <path fill="#8C9397" d="M286.77 222.96c19 .45 38.27.32 57.2-1.3 13.6-1.17 27.01-3.38 40.56-4.74-15.92 13.24-28.65 36.81-30.5 57.4a83.96 83.96 0 0 0 19.65 61.72c14.4 17.03 35.36 29.22 57.84 30.92a92.7 92.7 0 0 0 30.09-2.63c2.17 8.6 5.2 17.75 6.03 26.58-1.5 1.15-3.04 2.26-4.46 3.51 1.35 6.88 3.85 13.17 7.13 19.37-20.1 6.84-39.88 11.34-60.5 3.85a89.3 89.3 0 0 0 11.96-11.37c7.35-8.5 16.32-10.21 26.48-13.62.07-.97.1-1.98-.07-2.94-.5-3.02-2.94-4.64-5.3-6.22-18.6-.5-22.83 7.86-35.74 18.7-3.87 3.24-8 5.65-12.53 7.87-.02-8.07-1.28-15.8-6.5-22.28-5.25-6.52-15.38-12.47-23.78-13.1-13.15-.95-15.96 10.5-21.42 19.52a55.57 55.57 0 0 1-12.03 14.04 93.95 93.95 0 0 1-13.31 8.88c-4.57 2.55-10.2 4.87-14.03 8.45-2.28 2.12-3.8 4.93-3.83 8.08-.05 4.72 3.02 9.23 6.29 12.38 7.11 6.86 16.76 7.22 26.03 7.19-.34 1.97-.59 3.95-.74 5.95-.75 9.63 1.63 19.76 8.11 27.15a24.77 24.77 0 0 0 14.6 8.24c16.65 2.81 27.4-10.72 33.61-10.36 5.6 5.46 1.15 14.6 1.38 21.26.17 5.16 5.12 8.17 5.88 13.07.46 3.01-.68 6.99-2.64 9.3-5.34 6.34-16.31-2.65-22.97-2.47-6.98.19-13.64 3.97-20.86 4.33-22.18 1.1-42.28-7.56-58.59-22.4-30.75-27.99-40.54-68.43-42.28-108.36 15.51-5.9 31.3-3.73 46.33 2.64a51.12 51.12 0 0 0-10.75-8.71c-10.82-6.38-22.72-7.42-34.71-4.24 1.32-11.48 3.12-22.6 6-33.8 16.81-3.94 33.42-2.54 49.68 2.87-3.15-3.11-6.48-6.03-10.3-8.3-11.16-6.6-25.88-7.25-38.16-4.02.84-4.57 1.8-9.12 2.88-13.64 1.36-5.65 2.98-11.06 8.31-14.14 13.73-7.93 36.34-5.26 50.9-1.55a53.42 53.42 0 0 0-13.28-8.36c-12.37-5.28-26.8-4.76-39.13.24 1.16-6.25 2.09-12.82 3.87-18.91 1.42-4.88 3.6-8.18 8.17-10.54 13.7-7.05 34-5.38 48.24-1.12-5.49-4.58-11.26-8.54-18.1-10.82-12.58-4.2-23.11-1.63-34.57 4.13-.17-16.74 6.45-32.95 13.86-47.7Z"/>
    <path fill="#656B6F" d="M448.25 392.65c-1.4 3.78-2.9 5.22-6.56 6.92-4.76 2.22-9.92 3.58-14.75 5.76-1.79.8-3.22.92-5.17.94 7.35-8.5 16.32-10.21 26.48-13.62Z"/>
    <path fill="#87694E" d="M652.25 389.8c6.43 4.43 13.27 8.34 19.32 13.29 38.9 31.3 67 92.25 72.3 141.36 1.53 14.18 2.45 34.59-7.36 46.36-4.94 5.92-13.18 9.04-20.73 9.53-13.9.9-28.36-.02-42.31 0-15.37.02-31.24 1-46.53-.02-3.13-.21-6.06-.83-9.03-1.88 4.19-6.18 8.36-12.3 11.8-18.95 12.96-25.04 17.26-53.62 14.54-81.48 10.4 4.28 21 8.05 31.55 11.95 8.41 3.11 16.73 6.42 25.3 9.01-2.35-4.59-4.66-8.56-8.31-12.23-12.85-12.93-38.77-21.2-55.75-27.48-1.95-3.34-5.93-12-9.79-12.84-.87-.19-1.27.2-2.03.56-1.63 1.86-1.98 4.63-2.53 7-11.53-3.55-26.75-7.22-35.16-16.23 3.14-4.47 6.78-8.57 10.3-12.74l21.8-25.87c4.38-5.28 8.66-11.42 13.78-15.99 5.62-5 12.86-8.59 18.84-13.34Z"/>
    <path fill="#6C523D" d="M652.25 389.8c6.43 4.43 13.27 8.34 19.32 13.29-13.13 9.51-57.74 44.06-73.73 41.92l21.79-25.87c4.38-5.28 8.66-11.42 13.78-15.99 5.62-5 12.86-8.59 18.84-13.34Z"/>
    <path fill="#A6ACAF" d="M433.94 217.03a65.07 65.07 0 1 1 7.73 129.91 65.07 65.07 0 0 1-7.73-129.91Z"/>
    <path fill="#101F24" d="M431.88 259.01c4.15-.13 8.2.83 11.7 3.13 5.24 3.47 7.8 9.23 8.87 15.21 1.35 7.55.34 15.41-4.31 21.72-4.63 6.27-10.37 7.95-17.73 8.93-5.02-.45-9.27-1.45-13.37-4.58-5.04-3.83-7.93-9.4-8.75-15.6-.92-7 .28-14.5 4.81-20.1 4.83-5.96 11.44-7.96 18.77-8.7Z"/>
    <path fill="#FCFCFA" d="M439.25 272.6a4.6 4.6 0 1 1 2.53 8.85 4.6 4.6 0 0 1-2.53-8.85ZM478.92 241.93c5.65 3.44 9.99 11.5 12.45 17.43 6.01 14.54 6.09 33.53-.07 48.04-6.36 15.01-19.76 24.8-34.47 30.7-3 .83-6.05 1.53-9.08 2.26 15.35-9.8 26.91-21.28 34.06-38.3 8.86-21.1 5.51-39.72-2.89-60.13Z"/>
    <path fill="#101F24" d="M427.81 235.17c.82-.06 1.63-.12 2.44-.12 9.25-.1 16.22 3.15 22.74 9.51-5.66-1.6-11.72-1.91-17.57-1.58-11.85.68-21.98 6.09-29.84 14.87-4.03 4.66-6.98 10.14-11.03 14.8l-.67-.12c-.15-.42-.24-.63-.31-1.04-1.17-6.6 3.23-15.7 7.17-20.8a40.18 40.18 0 0 1 27.07-15.52Z"/>
    <path fill="#87694E" d="M439.34 39.19c3.91-.68 8.43-.32 12.4-.28.31.3.62.62.91.94 27.14 28.57 29.2 70.76 28.29 107.98-34.34-9.34-69.92-16.42-105.6-16.93-18.73-.37-37.47.83-56.02 3.56 6.02-14.23 12.92-27.54 22.35-39.86 26.78-35.02 54.36-49.6 97.67-55.41ZM404.43 562.77c18.27-21.71 46.78-41.94 72.06-54.73 2.8 6.12 5.37 10.5 10.4 15.08-1.17 9.47 4.06 19.97 9.74 27.2 4.83 6.18 11.25 10.28 19.12 11.22 6.78.8 11.96-.92 17.55-4.66 4.03 2.85 8.44 5.17 12.42 8.06-1.08 5.58-1.33 11.9 1.97 16.84 5.59 8.35 25.47 14.22 34.42 18.73-21.26-.56-42.63-.15-63.9-.04l-77.95.01-29.88.05c-4.4.01-10.3.68-14.54-.3.32-7.86 1.47-26.32 4.69-32.83.89-1.8 2.5-3.24 3.9-4.63Z"/>
    <path fill="#6C523D" d="M404.43 562.77c18.27-21.71 46.78-41.94 72.06-54.73 2.8 6.12 5.37 10.5 10.4 15.08-1.17 9.47 4.06 19.97 9.74 27.2 4.83 6.18 11.25 10.28 19.12 11.22 6.78.8 11.96-.92 17.55-4.66 4.03 2.85 8.44 5.17 12.42 8.06-1.08 5.58-1.33 11.9 1.97 16.84 5.59 8.35 25.47 14.22 34.42 18.73-21.26-.56-42.63-.15-63.9-.04l-77.95.01-29.88.05c-4.4.01-10.3.68-14.54-.3 4.74-.55 9.78-.28 14.56-.27l25.19.07c31.2.01 62.5.51 93.7-.13-5.1-6.67-5.87-12.74-6.23-20.86-15.5-.26-28.76-2.33-40.78-12.96-11.97-10.6-15.34-23.2-16.31-38.63-14.07 8.17-27.88 17.21-41.5 26.1-5.68 2.19-10.84 5.09-16.03 8.22-1.4.68-2.46.88-4 1Z"/>
    <path fill="#87694E" d="M408.44 561.77c5.2-3.13 10.35-6.03 16.02-8.22-2.09 4-6.35 5.91-10.49 7.22-1.8.58-3.65.84-5.53 1Z"/>
    <path fill="#101F24" d="M435.36 560.17c2.92-.12 5.2.06 7.75 1.61a11.67 11.67 0 0 1 5.3 7.41c.9 3.78.25 8.05-1.92 11.3-2.87 4.27-7.04 5.55-11.83 6.41-3.2.1-6.3.04-9.12-1.68a9.69 9.69 0 0 1-4.47-6.23c-.93-4.08.28-8.56 2.63-11.94 2.9-4.17 6.8-6.03 11.66-6.88Z"/>
    <path fill="#83898C" d="M484.1 468c-4.02-4.85-6.7-12.11-6.13-18.4a14.18 14.18 0 0 1 5.34-9.9c10.87-8.98 29.12-11.98 42.76-10.4a52.84 52.84 0 0 1 35.43 19.8c4.27 5.46 8.13 11.25 12.29 16.8 3.01 4.02 6.83 8.23 8.94 12.8 2.57 5.58.48 23.74-.38 30.56-1.55 12.3-5.26 23.6-9.22 35.26-1.58 4.31-3.24 8.52-5.13 12.7-12.97-3.99-21.16-8.58-29.26-19.56a45.9 45.9 0 0 0-9.7-8.19c-4.06 2.39-6.06 5.02-8.13 9.21 1.07 1.91 3.33 5.08 2.96 7.32-.1.54-.17.49-.73.74-2.8 1.3-6.87.33-9.57-.86-6.32-2.78-9.88-8.82-12.1-15.06a73.4 73.4 0 0 1-3.05-11.86c8.57-14.9 17.53-17.22 30.72-26.5a42.35 42.35 0 0 0-30.95 9.85 40.56 40.56 0 0 0-5.52 5.78c-4.2-7.38-7.9-14.95-5.42-23.69 2.57-9.09 11.39-14.88 19.26-19.09 6.9-3.68 13.68-5.48 20.85-8.2.93-.35 1.68-.68 2.17-1.57-1.84-1.74-9.01-1.48-11.55-1.4-12.5.4-24.5 5.72-33.88 13.85Z"/>
    <path fill="#656B6F" d="M538.74 537.66c3.57.47 7.13 1.98 10.55 3.1a70.39 70.39 0 0 0 23.84 3.76c-1.58 4.31-3.24 8.52-5.13 12.7-12.97-3.99-21.16-8.58-29.26-19.56Z"/>
    <path fill="#87694E" d="M467.94 38.49c22.3 2.19 42.93 7.44 62.57 18.61 30.69 17.47 45.94 43.3 55 76.5-4.44 1.38-8.77 3.05-13.13 4.68a219.66 219.66 0 0 0-17.8 7.71c-3.82 1.84-7.82 4.34-11.88 5.49-3.06.87-39.93-.63-45.68-1.04.32-4.67.5-9.34.53-14.02.43-33.12-5.71-73.43-29.6-97.93ZM354.6 145.71c39.33-2.37 79.41 3.76 116.9 15.41-30.72 14.44-67.9 22.98-101.54 26.53-38.63 3.88-76.1 4.69-113.88-5.28 5.86-4.67 12.65-8.37 19.02-12.3 28.3-17.4 46.74-22.78 79.5-24.36ZM302.97 534.45c23.81 11.58 42.76 12.7 67.81 5.1a62.43 62.43 0 0 0 15.32 4.65l-.62 7.7c-.25 16.07-2.85 32.44-4 48.5-31.36 0-62.76.35-94.1-.11 2.54-16.18 5.1-32.49 9.74-48.22a94.96 94.96 0 0 1 5.85-17.62Z"/>
    <path fill="#6C523D" d="M302.97 534.45c23.81 11.58 42.76 12.7 67.81 5.1a62.43 62.43 0 0 0 15.32 4.65l-.62 7.7c-7.78-.6-14.92.95-22.52 2.45-15.64 3.1-33.74 7.95-49.66 4.86-6.38-1.24-11.45-5.94-16.19-7.14a94.96 94.96 0 0 1 5.86-17.62Z"/>
    <path fill="#87694E" d="M597.36 481.15c4.47 1.4 8.86 3.37 13.26 5 6.53 2.41 13.42 4.51 19.65 7.58 3.76 21.94-2.23 53.78-11.36 74.14-3.8 8.48-8.81 16.1-13.96 23.79-3.38-1.73-7.22-2.96-10.76-4.37-7.7-3.07-15.35-6.12-22.77-9.82 15.63-19.81 23.91-47.37 25.88-72.39.63-7.95.28-15.97.06-23.93Z"/>
    <path fill="#6C523D" d="M266.24 503.38c2.82 2.77 5.16 6.01 8.1 8.78 4.97 4.69 10.46 8.76 15.46 13.4a277.98 277.98 0 0 0-17.1 74.78c-5.34.18-10.73.04-16.08.04-7.95.1-15.91-.03-23.86-.06 6.4-33.13 18.62-66.72 33.48-96.94Z"/>
    <path fill="#87694E" d="M474.87 423.82c.4.21.84.64 1.2.93.12 1.1.01 1.21-.6 2.1-1.14 1.67-2.82 3.02-4.14 4.56a31.44 31.44 0 0 0-7.3 18.65c-.5 11.2 4.23 21.03 11.7 29.09a35.85 35.85 0 0 0-2.95 12.87c-24.67 13.05-43.15 26.4-63.92 45.1-2.83 2.55-5.43 5.4-8.08 8.13 5.65-11.34 9.3-23.48 14.63-34.98 14-30.17 36.06-62.77 59.46-86.45Z"/>
    <path fill="#6C523D" d="M528.47 384.13c3.98-3.86 7.88-7.67 11.43-11.93 8.76 16.79 21.37 30.34 39.88 36.06 9.52 2.94 18.4 2.78 28.2 2.15a713.86 713.86 0 0 1-20.04 23.23c-3.24 3.86-6.51 7.7-9.8 11.53a615.4 615.4 0 0 0-4.27-5.14c-15.86-18.9-31.28-26-55.6-28.1-2-4.8-3.57-9.9-5.3-14.8 5.47-3.93 10.48-8.53 15.5-13Z"/>
    <path fill="#87694E" d="M512.97 397.13c5.47-3.93 10.48-8.53 15.5-13 6.21 13.53 30.71 33.44 43.61 41.3 5.02 3.07 11.12 4.85 15.86 8.2-3.24 3.87-6.51 7.72-9.8 11.54a615.4 615.4 0 0 0-4.27-5.14c-15.86-18.9-31.28-26-55.6-28.1-2-4.8-3.57-9.9-5.3-14.8Z"/>
    <path fill="#656B6F" d="M296.14 206.35c46.75 1.5 86.35-3.12 131.86-13.9a343.94 343.94 0 0 0 43.07-13.3c7.48-2.86 15-7.1 22.7-9.15 1.69-.45 3.4.18 5.04.65-7.21 11.42-32.47 20.04-44.43 27.3-22.39-3.41-44.15-.17-62.76 13.54-2.3 1.69-4.67 3.99-7.1 5.43-13.54 1.36-26.96 3.57-40.54 4.73-18.94 1.63-38.22 1.76-57.21 1.3 2.74-5.84 5.63-11.33 9.37-16.6Z"/>
    <path fill="url(#b)" d="m387.01 432.71.78.04c6.37 5.9 20.57 40.92 25.3 50.76a646.29 646.29 0 0 1-7.85 16.12c-.24-8-.85-17.39-5.57-24.2a14.52 14.52 0 0 0-9.73-6.41c-12.36-.44-11.26 3.83-20.32 9.08-3.86 2.23-9.7 3.4-14.05 2.19-3.46-.97-5.98-3.4-7.63-6.53-4.1-7.75-2.4-15.3-.13-23.18a110.29 110.29 0 0 0 15.99-7c8.04-4.4 13.7-10.2 23.21-10.87Z"/>
    <path fill="#FCFCFA" d="M365.04 386.52c4.02-.17 8.32 1.6 11.49 3.98 3.78 2.84 7.05 7.06 7.5 11.9.51 5.28-2.17 10.36-5.43 14.33-10.14 12.36-30.8 21.49-46.48 23.04-6.72.77-12.65-.78-18.49-4.02 3.65-2.6 7.8-4.74 11.64-7.08 12.83-7.82 21.36-15.75 29.19-28.59 2.93-4.8 5.67-10.57 10.58-13.56Z"/>
    <path fill="#BCD6E9" d="M404.5 431.87c15.45 3.57 29.43 3.43 45.02 1.3-5.39 5.58-9.85 12.46-14.65 18.58-4.3 5.6-8.13 11.58-12.06 17.44-5.99-12.51-12.67-24.65-18.32-37.32Z"/>
    <path fill="#172931" d="M496.14 389.5c.72-.04.98.08 1.63.34.9 9.74 5.37 18.15 7.95 27.51-5.83 1.33-11.43 3.36-17.07 5.32-2.65-8.5-7.33-16.84-11.14-24.9 6.04-3.36 12.17-5.88 18.63-8.28Z"/>
    <path fill="#87694E" d="M404.97 15.06c1.9-.08 3.78-.1 5.67.08 5.51.54 21.46 5.16 24.99 9.4l-.32.66-2.54.66c-8.34 1.23-19.02 2.4-26.19-3.12-1.57-1.2-3.14-2.73-3.4-4.77.33-1.46.65-1.92 1.79-2.9ZM493.06 15.2l2.73.4c.97.84.93.79 1.06 2.07a8.28 8.28 0 0 1-1.94 2.8c-6.88 6.42-14.62 5.79-23.24 5.5l-4.82-.73c8.4-4.64 16.53-9.08 26.21-10.03Z"/>
    <path fill="#172931" d="M481.16 363.93c2.17 1.24 5.5 12.85 6.55 15.84l-8.04 4.1-1.12.05c-2.82-2.92-4.17-11.42-5.29-15.45 2.47-1.7 5.28-3.07 7.9-4.54Z"/>
    <path fill="#fff" d="M235.8 417.97c1.55 1.95 1.95 8.3 2.42 10.95l-4.88-2.04c-2.08-.9-3.97-2.14-5.9-3.32 2.51-2.32 5.42-3.9 8.36-5.6ZM290.68 671.61a875.4 875.4 0 0 1-1.24 17.52 921.02 921.02 0 0 1-1.35 17.63c-.15 1.58-.26 3.07-.33 4.5a26.5 26.5 0 0 0 7.63 11c3.37 2.77 7.42 4.16 12.13 4.16 4.12 0 7.71-1.28 10.78-3.82a30.33 30.33 0 0 0 7.75-10.11 54.6 54.6 0 0 0 4.72-13.81 75.03 75.03 0 0 0 1.57-15.16c0-4.12-.37-7.94-1.12-11.46a30.2 30.2 0 0 0-3.15-9.1 16.42 16.42 0 0 0-5.39-6.06c-2.1-1.5-4.6-2.25-7.52-2.25-2.4 0-4.8.49-7.19 1.46-2.32.9-4.57 2.1-6.74 3.6a36.68 36.68 0 0 0-10.22 10.22l-.33 1.68Zm2.24-32.9a91.78 91.78 0 0 1 19.77-10.22 61.72 61.72 0 0 1 21.56-3.82c7.04 0 13.1 1.46 18.2 4.38a36.79 36.79 0 0 1 12.8 11.68 50.6 50.6 0 0 1 7.4 16.84 79.48 79.48 0 0 1 2.48 20 100.16 100.16 0 0 1-7.07 36.5 86.9 86.9 0 0 1-8.65 16.28 65.83 65.83 0 0 1-11.9 13.36 53.07 53.07 0 0 1-14.83 8.87 47.63 47.63 0 0 1-17.75 3.26c-5.61 0-11-1.12-16.17-3.37a64.84 64.84 0 0 1-14.37-8.76c0 .38-.12 1.76-.34 4.16-.15 2.32-.37 5.16-.67 8.53-.3 3.37-.64 6.96-1.01 10.78-.38 3.9-.72 7.53-1.01 10.9-.3 3.37-.57 6.21-.8 8.53-.14 2.4-.21 3.78-.21 4.16v1.46c.07.45.1.86.1 1.23 0 .6-.3 1.09-.9 1.46-.51.45-1.75.94-3.7 1.46l-29.53 7.53c-.83.22-1.91.56-3.26 1-1.35.53-2.66.8-3.93.8a5.12 5.12 0 0 1-2.8-.8c-.76-.52-1.13-1.49-1.13-2.91l13.7-164.42c.22-2.47.49-4.15.79-5.05.37-.97 1.23-1.61 2.58-1.91 6.81-1.35 13.81-2.7 21-4.04a191.66 191.66 0 0 0 21-5.4c.6 0 .94.12 1.01.34.15.15.23.41.23.79 0 .15-.04.37-.12.67 0 .3-.1.98-.33 2.02-.15 1.05-.42 2.66-.79 4.83-.3 2.1-.75 5.06-1.35 8.88Zm178.34 31.22a26.47 26.47 0 0 0-3.14-5.28 27.97 27.97 0 0 0-4.5-4.94 22.4 22.4 0 0 0-5.6-3.6 14.58 14.58 0 0 0-6.41-1.46c-3.07 0-5.95 1.28-8.65 3.82-2.7 2.55-5.05 5.95-7.07 10.22a65.73 65.73 0 0 0-4.83 14.49 82.4 82.4 0 0 0-1.69 16.84c0 3.6.3 7 .9 10.22a29.44 29.44 0 0 0 3.03 8.31c1.35 2.4 3.07 4.31 5.17 5.73a13.82 13.82 0 0 0 7.75 2.14c4.5 0 8.6-1.39 12.35-4.16a37.03 37.03 0 0 0 9.55-11c.07-1.58.19-3.45.33-5.62l.57-7.86.78-11 1.35-15.17.11-1.68Zm37.18 67.83a74.77 74.77 0 0 1-5.06 20.77 76.79 76.79 0 0 1-10 17.64 77.93 77.93 0 0 1-13.7 14.37 85.3 85.3 0 0 1-16.28 10.78 81.07 81.07 0 0 1-17.63 6.63 71.41 71.41 0 0 1-17.97 2.36c-3.14 0-6.36-.11-9.66-.34a68.2 68.2 0 0 1-9.66-1.35c-3.14-.6-6.13-1.5-8.98-2.7a29.43 29.43 0 0 1-7.64-4.37v-.11c0-.38.26-1.69.79-3.94.6-2.24 1.27-4.9 2.02-7.97.82-3 1.65-6.1 2.47-9.32.9-3.22 1.65-5.99 2.25-8.31.3-1.05.6-1.76.9-2.13.3-.38.63-.57 1-.57.46 0 .72.04.8.12a53.32 53.32 0 0 0 6.06 3.48c1.94.97 3.97 1.72 6.06 2.24 2.17.6 4.53 1.01 7.08 1.24 2.54.22 5.5.34 8.87.34 5.24 0 9.88-1.01 13.92-3.04a35.2 35.2 0 0 0 10.45-7.86 39.72 39.72 0 0 0 6.96-10.67c1.8-3.81 3.03-7.6 3.7-11.34a91.65 91.65 0 0 1-16.39 8.76 44.22 44.22 0 0 1-16.73 3.37c-7.71 0-14.38-1.57-20-4.72a40.49 40.49 0 0 1-13.92-12.46 56.36 56.36 0 0 1-8.2-17.97 86.75 86.75 0 0 1-2.58-21.34c0-5.84.52-11.72 1.57-17.63a101.76 101.76 0 0 1 4.83-17.3 84.08 84.08 0 0 1 7.98-15.5 59.77 59.77 0 0 1 10.89-12.68 48 48 0 0 1 13.7-8.43 42.1 42.1 0 0 1 16.4-3.14c6.44 0 12.39 1.42 17.85 4.27a66.39 66.39 0 0 1 15.05 10.55l.34-3.14c.07-.83.26-1.46.56-1.91.3-.45.79-.79 1.46-1.01.75-.23 1.8-.49 3.15-.79.82-.15 2.32-.45 4.49-.9a523.71 523.71 0 0 1 17.63-3.93c3.6-.75 7.22-1.53 10.9-2.36.9-.22 1.72-.33 2.46-.33 2.33 0 3.49 1.5 3.49 4.49v1.12c0 .3-.04.64-.12 1.01l-11.56 106.02Zm76.7-66.15a883 883 0 0 1-1.24 17.52 921.02 921.02 0 0 1-1.34 17.63c-.15 1.58-.26 3.07-.34 4.5a26.51 26.51 0 0 0 7.64 11c3.37 2.77 7.4 4.16 12.13 4.16 4.11 0 7.7-1.28 10.78-3.82a30.33 30.33 0 0 0 7.75-10.11 54.56 54.56 0 0 0 4.71-13.81 74.97 74.97 0 0 0 1.57-15.16c0-4.12-.37-7.94-1.12-11.46a30.2 30.2 0 0 0-3.14-9.1 16.41 16.41 0 0 0-5.4-6.06 12.6 12.6 0 0 0-7.52-2.25c-2.4 0-4.79.49-7.19 1.46-2.32.9-4.56 2.1-6.73 3.6a36.68 36.68 0 0 0-10.22 10.22l-.34 1.68Zm2.25-32.9a91.78 91.78 0 0 1 19.76-10.22 61.72 61.72 0 0 1 21.56-3.82c7.04 0 13.1 1.46 18.2 4.38a36.79 36.79 0 0 1 12.8 11.68 50.6 50.6 0 0 1 7.41 16.84 79.48 79.48 0 0 1 2.47 20 100.16 100.16 0 0 1-7.07 36.5 86.9 86.9 0 0 1-8.65 16.28 65.83 65.83 0 0 1-11.9 13.36 53.07 53.07 0 0 1-14.83 8.87 47.64 47.64 0 0 1-17.74 3.26c-5.62 0-11-1.12-16.17-3.37a64.82 64.82 0 0 1-14.38-8.76c0 .38-.11 1.76-.34 4.16-.15 2.32-.37 5.16-.67 8.53-.3 3.37-.64 6.96-1.01 10.78-.38 3.9-.71 7.53-1.01 10.9-.3 3.37-.56 6.21-.79 8.53-.15 2.4-.22 3.78-.22 4.16v1.46c.07.45.11.86.11 1.23 0 .6-.3 1.09-.9 1.46-.52.45-1.76.94-3.7 1.46l-29.54 7.53c-.82.22-1.91.56-3.26 1a10.8 10.8 0 0 1-3.93.8 5.12 5.12 0 0 1-2.8-.8c-.75-.52-1.13-1.49-1.13-2.91l13.7-164.42c.23-2.47.49-4.15.79-5.05.37-.97 1.23-1.61 2.58-1.91 6.81-1.35 13.81-2.7 21-4.04a191.54 191.54 0 0 0 21-5.4c.6 0 .94.12 1.01.34.15.15.23.41.23.79 0 .15-.04.37-.11.67 0 .3-.12.98-.34 2.02-.15 1.05-.41 2.66-.79 4.83-.3 2.1-.75 5.06-1.34 8.88Zm99.38 63.67c.98-10.25 1.95-20.4 2.93-30.43.97-10.03 1.83-20.33 2.58-30.89.15-2.47.37-4.15.67-5.05.38-.97 1.24-1.6 2.58-1.9 6.37-1.28 13.03-2.6 20-3.94a174.1 174.1 0 0 0 20.21-5.39 3.4 3.4 0 0 1 1.01-.11c.83 0 1.24.3 1.24.9l-10.11 109.38a29.2 29.2 0 0 1-.79 5.17c-.3.9-1.12 1.5-2.47 1.8a366.62 366.62 0 0 0-19.31 6.5c-6.52 2.4-13.4 4.84-20.67 7.3-.22.08-.56.12-1 .12-.83 0-1.24-.38-1.24-1.12l.22-3.04.56-7.52c.3-3.07.6-6.51.9-10.33l.9-11.46c.37-3.82.71-7.48 1-11 .3-3.52.57-6.52.8-8.99Zm8.43-89.62c.22-3.22.37-5.69.45-7.4l.33-3.83c.08-.9.12-1.46.12-1.68v-.45c.07-.15.1-.38.1-.67.08-.38.16-1.09.23-2.14a944.85 944.85 0 0 1 1.01-13.48c.15-2.47.38-4.15.68-5.05.37-.97 1.23-1.6 2.58-1.9 6.37-1.28 13.03-2.6 20-3.94a174.1 174.1 0 0 0 20.2-5.39 3.4 3.4 0 0 1 1.02-.11c.22.45.52.75.9.9l.33.22-2.47 30.77c-.22 2.47-.52 4.2-.9 5.17-.3.97-1.08 1.57-2.36 1.8-6.36 1.2-12.8 2.5-19.31 3.93a977.81 977.81 0 0 1-20.67 4.26 3.4 3.4 0 0 1-1 .12c-.83 0-1.24-.38-1.24-1.13Z"/>
    <path fill="#000" d="M49 467H1v134h225l6-22 5-27 13-31 12-31-5-13h-75l-21 24v51h-13V428c-24.6-10.96-60.4-10.4-85 0v62H49v-23Z"/>
  </g>
  <defs>
    <linearGradient id="b" x1="361.14" x2="399.24" y1="442.78" y2="501.39" gradientUnits="userSpaceOnUse">
      <stop stop-color="#705640"/>
      <stop offset="1" stop-color="#9B795D"/>
    </linearGradient>
    <clipPath id="a">
      <path fill="#fff" d="M0 0h801v836H0z"/>
    </clipPath>
  </defs>
</svg>
